<svg version="1.2" baseProfile="tiny-ps" xmlns="http://www.w3.org/2000/svg" viewBox="0 0 510 510" width="70" height="70">
	<title>logo-svg</title>
	<defs>
		<linearGradient id="grd1" gradientUnits="userSpaceOnUse"  x1="131.515" y1="131.515" x2="440.582" y2="440.582">
			<stop offset="0" stop-color="#18cffc"  />
			<stop offset="1" stop-color="#4a98f7"  />
		</linearGradient>
		<linearGradient id="grd2" gradientUnits="userSpaceOnUse"  x1="293.974" y1="535.746" x2="202.219" y2="-125.198">
			<stop offset="0" stop-color="#18cffc" stop-opacity="0" />
			<stop offset="1" stop-color="#65e1dc"  />
		</linearGradient>
		<linearGradient id="grd3" gradientUnits="userSpaceOnUse"  x1="310.055" y1="310.055" x2="55.988" y2="55.988">
			<stop offset="0" stop-color="#18cffc" stop-opacity="0" />
			<stop offset="1" stop-color="#65e1dc"  />
		</linearGradient>
		<linearGradient id="grd4" gradientUnits="userSpaceOnUse"  x1="354.277" y1="348.599" x2="4.969" y2="207.078">
			<stop offset="0" stop-color="#0469bc" stop-opacity="0" />
			<stop offset="1" stop-color="#0469bc"  />
		</linearGradient>
		<linearGradient id="grd5" gradientUnits="userSpaceOnUse"  x1="92.947" y1="268.277" x2="494.723" y2="553.355">
			<stop offset="0" stop-color="#92f37f"  />
			<stop offset="1" stop-color="#4ab272"  />
		</linearGradient>
		<linearGradient id="grd6" gradientUnits="userSpaceOnUse"  x1="365.455" y1="402.371" x2="139.921" y2="237.136">
			<stop offset="0" stop-color="#4ab272" stop-opacity="0" />
			<stop offset="1" stop-color="#009245"  />
		</linearGradient>
		<linearGradient id="grd7" gradientUnits="userSpaceOnUse"  x1="174.893" y1="152.787" x2="576.668" y2="437.864">
			<stop offset="0" stop-color="#92f37f"  />
			<stop offset="1" stop-color="#4ab272"  />
		</linearGradient>
		<linearGradient id="grd8" gradientUnits="userSpaceOnUse"  x1="192.494" y1="173.743" x2="78.675" y2="59.924">
			<stop offset="0" stop-color="#92f37f" stop-opacity="0" />
			<stop offset="1" stop-color="#ffee83"  />
		</linearGradient>
		<linearGradient id="grd9" gradientUnits="userSpaceOnUse"  x1="394.214" y1="276.752" x2="574.262" y2="308.427">
			<stop offset="0" stop-color="#92f37f"  />
			<stop offset="1" stop-color="#4ab272"  />
		</linearGradient>
		<linearGradient id="grd10" gradientUnits="userSpaceOnUse"  x1="422.759" y1="114.496" x2="602.808" y2="146.171">
			<stop offset="0" stop-color="#92f37f"  />
			<stop offset="1" stop-color="#4ab272"  />
		</linearGradient>
		<linearGradient id="grd11" gradientUnits="userSpaceOnUse"  x1="206.123" y1="279.302" x2="231.829" y2="305.009">
			<stop offset="0" stop-color="#ff7044"  />
			<stop offset="1" stop-color="#f92814"  />
		</linearGradient>
		<linearGradient id="grd12" gradientUnits="userSpaceOnUse"  x1="215.526" y1="288.706" x2="197.564" y2="270.744">
			<stop offset="0" stop-color="#ff7044" stop-opacity="0" />
			<stop offset="1" stop-color="#ffa425"  />
		</linearGradient>
		<linearGradient id="grd13" gradientUnits="userSpaceOnUse"  x1="214.238" y1="294.335" x2="241.52" y2="243.594">
			<stop offset="0" stop-color="#f92814" stop-opacity="0" />
			<stop offset="1" stop-color="#c1272d"  />
		</linearGradient>
		<linearGradient id="grd14" gradientUnits="userSpaceOnUse"  x1="209.514" y1="262.222" x2="217.626" y2="262.222">
			<stop offset="0" stop-color="#f9f7fc"  />
			<stop offset="1" stop-color="#f0ddfc"  />
		</linearGradient>
		<linearGradient id="grd15" gradientUnits="userSpaceOnUse"  x1="208.491" y1="263.065" x2="220.736" y2="260.711">
			<stop offset="0" stop-color="#ffffff"  />
			<stop offset="1" stop-color="#e9edf5" stop-opacity="0" />
		</linearGradient>
		<linearGradient id="grd16" gradientUnits="userSpaceOnUse"  x1="225.692" y1="251.95" x2="207.486" y2="233.745">
			<stop offset="0" stop-color="#f0ddfc" stop-opacity="0" />
			<stop offset="0.289" stop-color="#c8b7e0" stop-opacity="0.29" />
			<stop offset="0.592" stop-color="#a595c8" stop-opacity="0.59" />
			<stop offset="0.84" stop-color="#8f81b8" stop-opacity="0.84" />
			<stop offset="1" stop-color="#8779b3"  />
		</linearGradient>
		<linearGradient id="grd17" gradientUnits="userSpaceOnUse"  x1="200.49" y1="195.774" x2="245.695" y2="240.979">
			<stop offset="0" stop-color="#ffda45"  />
			<stop offset="1" stop-color="#ffa425"  />
		</linearGradient>
		<linearGradient id="grd18" gradientUnits="userSpaceOnUse"  x1="217.026" y1="212.31" x2="185.44" y2="180.724">
			<stop offset="0" stop-color="#ffda45" stop-opacity="0" />
			<stop offset="1" stop-color="#fcee21"  />
		</linearGradient>
		<linearGradient id="grd19" gradientUnits="userSpaceOnUse"  x1="214.761" y1="222.209" x2="262.737" y2="132.982">
			<stop offset="0" stop-color="#ffda45" stop-opacity="0" />
			<stop offset="1" stop-color="#b53759"  />
		</linearGradient>
		<linearGradient id="grd20" gradientUnits="userSpaceOnUse"  x1="301.885" y1="282" x2="652.395" y2="-369.899">
			<stop offset="0" stop-color="#0469bc" stop-opacity="0" />
			<stop offset="1" stop-color="#0469bc"  />
		</linearGradient>
	</defs>
	<style>
		tspan { white-space:pre }
		.shp0 { fill: url(#grd1) } 
		.shp1 { fill: url(#grd2) } 
		.shp2 { fill: url(#grd3) } 
		.shp3 { fill: url(#grd4) } 
		.shp4 { fill: url(#grd5) } 
		.shp5 { fill: url(#grd6) } 
		.shp6 { fill: url(#grd7) } 
		.shp7 { fill: url(#grd8) } 
		.shp8 { fill: url(#grd9) } 
		.shp9 { fill: url(#grd10) } 
		.shp10 { fill: url(#grd11) } 
		.shp11 { fill: url(#grd12) } 
		.shp12 { fill: url(#grd13) } 
		.shp13 { fill: url(#grd14) } 
		.shp14 { fill: url(#grd15) } 
		.shp15 { fill: url(#grd16) } 
		.shp16 { fill: url(#grd17) } 
		.shp17 { fill: url(#grd18) } 
		.shp18 { fill: url(#grd19) } 
		.shp19 { fill: url(#grd20) } 
	</style>
	<path id="Layer" class="shp0" d="M255 510C113.98 510 0 396.01 0 255C0 113.98 113.98 0 255 0C396.01 0 510 113.98 510 255C510 396.01 396.01 510 255 510Z" />
	<path id="Layer" fill-rule="evenodd" class="shp1" d="M509.9 255C509.9 305.8 483.14 353.43 434.55 389.13C425.8 395.55 416.53 401.45 406.8 406.8C401.45 416.52 395.55 425.8 389.13 434.55C353.43 483.14 305.8 509.9 255 509.9C204.2 509.9 156.57 483.14 120.88 434.55C114.45 425.8 108.55 416.52 103.2 406.8C93.48 401.45 84.2 395.55 75.45 389.12C26.86 353.43 0.1 305.8 0.1 255C0.1 204.2 26.86 156.57 75.45 120.88C84.2 114.45 93.48 108.55 103.2 103.2C108.55 93.48 114.45 84.2 120.88 75.45C156.57 26.86 204.2 0.1 255 0.1C305.8 0.1 353.43 26.86 389.12 75.45C395.55 84.2 401.45 93.48 406.8 103.2C416.52 108.55 425.8 114.45 434.55 120.88C483.14 156.57 509.9 204.2 509.9 255ZM255 497.9C269 497.9 283.84 477.05 295.57 441.47C282.27 443.03 268.72 443.84 255 443.84C241.28 443.84 227.73 443.03 214.43 441.47C226.16 477.05 241 497.9 255 497.9ZM255 431.84C270.17 431.84 285.01 430.81 299.41 428.87C307.41 400.6 313.21 366.67 316.53 329.63C296.65 331.05 276.02 331.78 255 331.78C233.98 331.78 213.35 331.05 193.47 329.63C196.79 366.67 202.59 400.6 210.59 428.87C224.99 430.81 239.83 431.84 255 431.84ZM255 12.1C241 12.1 226.16 32.95 214.43 68.53C227.73 66.97 241.28 66.16 255 66.16C268.72 66.16 282.27 66.97 295.57 68.53C283.84 32.95 269 12.1 255 12.1ZM255 78.16C239.83 78.16 224.99 79.19 210.59 81.13C202.59 109.4 196.79 143.33 193.47 180.38C213.35 178.95 233.98 178.22 255 178.22C276.02 178.22 296.65 178.95 316.53 180.38C313.21 143.33 307.41 109.4 299.41 81.13C285.01 79.19 270.17 78.16 255 78.16ZM190.22 255C190.22 276.4 190.99 297.36 192.48 317.52C212.64 319.01 233.6 319.78 255 319.78C276.4 319.78 297.36 319.01 317.52 317.52C319.01 297.36 319.78 276.4 319.78 255C319.78 233.61 319.01 212.64 317.52 192.48C297.36 190.99 276.4 190.22 255 190.22C233.6 190.22 212.64 190.99 192.48 192.48C190.99 212.64 190.22 233.6 190.22 255ZM178.22 255C178.22 233.98 178.95 213.35 180.38 193.47C143.33 196.79 109.4 202.59 81.13 210.59C79.19 224.99 78.16 239.83 78.16 255C78.16 270.17 79.19 285.01 81.13 299.41C109.4 307.41 143.33 313.21 180.38 316.53C178.95 296.65 178.22 276.02 178.22 255ZM329.63 193.47C331.05 213.35 331.78 233.98 331.78 255C331.78 276.02 331.05 296.65 329.63 316.53C366.67 313.21 400.6 307.41 428.87 299.41C430.82 285.01 431.84 270.17 431.84 255C431.84 239.83 430.82 224.99 428.87 210.59C400.6 202.59 366.67 196.79 329.63 193.47ZM328.66 181.34C364.98 184.5 398.46 190 426.84 197.59C421.3 166.3 411.33 137.36 397.91 112.1C372.64 98.67 343.71 88.71 312.41 83.16C320 111.54 325.5 145.03 328.66 181.34ZM197.59 83.16C166.29 88.71 137.36 98.67 112.1 112.1C98.67 137.36 88.7 166.3 83.16 197.59C111.54 190.01 145.03 184.5 181.34 181.34C184.5 145.03 190.01 111.54 197.59 83.16ZM66.16 255C66.16 241.28 66.97 227.73 68.53 214.43C32.95 226.16 12.1 241 12.1 255C12.1 269 32.95 283.84 68.53 295.57C66.97 282.27 66.16 268.72 66.16 255ZM83.16 312.41C88.71 343.71 98.67 372.64 112.1 397.9C137.36 411.33 166.29 421.3 197.59 426.84C190 398.46 184.5 364.97 181.34 328.66C145.03 325.5 111.54 320 83.16 312.41ZM328.66 328.66C325.5 364.98 320 398.46 312.41 426.84C343.71 421.3 372.64 411.33 397.91 397.9C411.33 372.64 421.3 343.71 426.84 312.41C398.46 320 364.98 325.5 328.66 328.66ZM441.47 214.43C443.03 227.73 443.84 241.28 443.84 255C443.84 268.72 443.03 282.27 441.47 295.57C477.05 283.84 497.9 269 497.9 255C497.9 241 477.05 226.16 441.47 214.43ZM495.07 227.98C486.32 186.6 457.78 149.91 416.75 123.2C427.57 147.31 435.29 173.63 439.66 201.26C464.72 208.96 483.33 217.96 495.07 227.98ZM282.02 14.93C292.04 26.67 301.04 45.29 308.74 70.35C336.37 74.71 362.69 82.43 386.81 93.25C360.09 52.22 323.4 23.68 282.02 14.93ZM123.2 93.25C147.31 82.43 173.63 74.71 201.26 70.34C208.96 45.28 217.96 26.67 227.98 14.93C186.6 23.68 149.91 52.22 123.2 93.25ZM93.25 123.19C52.22 149.91 23.68 186.6 14.93 227.97C26.67 217.96 45.29 208.96 70.35 201.26C74.71 173.63 82.43 147.31 93.25 123.19ZM14.93 282.02C23.68 323.4 52.22 360.09 93.25 386.8C82.43 362.69 74.71 336.37 70.35 308.74C45.29 301.04 26.67 292.04 14.93 282.02ZM123.2 416.75C149.91 457.78 186.6 486.32 227.98 495.07C217.96 483.33 208.96 464.72 201.26 439.66C173.63 435.29 147.31 427.57 123.2 416.75ZM386.81 416.75C362.69 427.57 336.37 435.29 308.74 439.66C301.04 464.72 292.04 483.33 282.02 495.07C323.4 486.32 360.09 457.78 386.81 416.75ZM416.75 386.8C457.78 360.09 486.32 323.4 495.07 282.02C483.33 292.04 464.72 301.04 439.66 308.74C435.29 336.37 427.57 362.69 416.75 386.8Z" />
	<path id="Layer" class="shp2" d="M255 482.62C129.13 482.62 27.38 380.87 27.38 255C27.38 129.13 129.13 27.38 255 27.38C380.87 27.38 482.62 129.13 482.62 255C482.62 380.87 380.87 482.62 255 482.62Z" />
	<path id="Layer" class="shp3" d="M460.19 406.4L240.68 186.88C234.28 178.98 224.51 173.93 213.55 173.93C194.27 173.93 178.65 189.56 178.65 208.83C178.65 219.78 183.69 229.54 191.58 235.94C193.12 237.84 208.57 253.19 209.35 253.99L209.35 267.33C200.41 269.26 193.7 277.21 193.7 286.73C193.7 293.53 197.13 299.54 202.35 303.11L377.78 478.54C410.2 460.69 438.32 436 460.19 406.4L460.19 406.4Z" />
	<path id="Layer" class="shp4" d="M231.17 265.62L241.04 275.49C244.65 279.1 246.68 284 246.68 289.1C246.68 299.74 255.3 308.36 265.94 308.36C277.02 308.36 286.01 317.35 286.01 328.43C286.01 342.85 283.01 357.11 277.18 370.3L241.64 450.79C236.77 461.81 222.36 464.5 213.84 455.99C201.43 443.57 194.46 426.74 194.46 409.18L194.46 399.82C194.46 375.41 184.76 352.01 167.5 334.75L166.45 333.7C150.21 317.45 141.08 295.43 141.08 272.46L141.08 269.1C141.08 253.17 154 240.25 169.93 240.25C192.9 240.25 214.93 249.38 231.17 265.62L231.17 265.62Z" />
	<path id="Layer" class="shp5" d="M265.94 308.36C255.3 308.36 246.68 299.74 246.68 289.11C246.68 284 244.65 279.1 241.04 275.49L231.17 265.62C222.69 257.14 212.62 250.62 201.68 246.31C205.49 250.13 208.99 253.62 209.35 253.99L209.35 267.34C200.41 269.26 193.7 277.21 193.7 286.73C193.7 293.54 197.13 299.54 202.35 303.11L274.84 375.6L277.18 370.31C283 357.12 286.01 342.86 286.01 328.44C286.01 317.35 277.02 308.36 265.94 308.36L265.94 308.36Z" />
	<path id="Layer" class="shp6" d="M167.3 15.49C103.45 38.88 51.57 87.06 23.31 148.38C19.96 155.65 18.3 163.58 18.3 171.58C18.3 186.49 24.22 200.78 34.76 211.32L39.97 216.53C63.33 239.89 95 253.01 128.03 253.01C132.97 253.01 136.97 249.01 136.97 244.07C136.97 239.14 132.97 235.14 128.03 235.14L100.57 235.14C87.9 235.14 77.63 224.87 77.63 212.2C77.63 199.54 87.9 189.27 100.57 189.27L122.02 189.27C147.74 189.27 172.41 179.05 190.6 160.86L223.72 127.74C230.93 120.53 240.71 116.48 250.91 116.48C265.66 116.48 279.12 108.04 285.54 94.75C293.4 78.47 281.54 59.57 263.46 59.57L220.72 59.57C208.16 59.57 197.97 49.38 197.97 36.82C197.97 20.96 182.19 10.04 167.3 15.49L167.3 15.49Z" />
	<path id="Layer" class="shp7" d="M263.46 59.56L220.72 59.56C208.16 59.56 197.97 49.38 197.97 36.82C197.97 36.07 197.93 35.34 197.86 34.61C114.55 56.15 49.75 123.68 32.14 208.49C32.98 209.46 33.85 210.41 34.76 211.32L39.97 216.53C63.33 239.89 95 253.01 128.03 253.01C132.97 253.01 136.97 249.01 136.97 244.07C136.97 239.14 132.97 235.14 128.03 235.14L100.57 235.14C87.9 235.14 77.63 224.87 77.63 212.2C77.63 199.54 87.9 189.27 100.57 189.27L122.02 189.27C147.74 189.27 172.41 179.05 190.59 160.86L223.71 127.74C230.93 120.53 240.71 116.48 250.91 116.48C265.66 116.48 279.12 108.04 285.53 94.75C293.4 78.47 281.54 59.56 263.46 59.56L263.46 59.56Z" />
	<path id="Layer" class="shp8" d="M504.06 200.06C500.54 184.02 486.21 172.68 469.79 172.68L433.84 172.68L414.63 172.68C381.97 172.68 355.49 199.16 355.49 231.81L355.49 239.01C355.49 267.7 378.75 290.95 407.43 290.95C422.02 290.95 433.84 302.77 433.84 317.36L433.84 386.32C433.84 404.29 457.17 411.45 467.16 396.51C487.92 365.46 502.04 329.6 507.49 290.95C509.14 279.21 510 267.2 510 255C510 236.13 507.95 217.75 504.06 200.06L504.06 200.06Z" />
	<path id="Layer" class="shp9" d="M482.62 139.93L406.45 139.93C392.82 139.93 381.78 128.89 381.78 115.26C381.78 101.64 392.82 90.59 406.45 90.59L449.93 90.59C462.64 105.64 473.64 122.19 482.62 139.93Z" />
	<path id="Layer" class="shp10" d="M213.55 306.58C202.57 306.58 193.7 297.7 193.7 286.73C193.7 275.75 202.57 266.88 213.55 266.88C224.52 266.88 233.4 275.75 233.4 286.73C233.4 297.7 224.52 306.58 213.55 306.58Z" />
	<path id="Layer" class="shp11" d="M213.55 303.29C204.39 303.29 196.98 295.89 196.98 286.73C196.98 277.57 204.39 270.16 213.55 270.16C222.71 270.16 230.11 277.57 230.11 286.73C230.11 295.89 222.71 303.29 213.55 303.29Z" />
	<path id="Layer" class="shp12" d="M222.43 268.97C223.77 271.65 224.52 274.66 224.52 277.85C224.52 288.81 215.63 297.7 204.67 297.7C201.48 297.7 198.47 296.95 195.79 295.61C199.05 302.11 205.78 306.58 213.55 306.58C224.51 306.58 233.4 297.69 233.4 286.73C233.4 278.96 228.93 272.23 222.43 268.97Z" />
	<path id="Layer" class="shp13" d="M213.55 288.31C211.23 288.31 209.35 286.44 209.35 284.12L209.35 236.13L217.75 236.13L217.75 284.12C217.74 286.44 215.87 288.31 213.55 288.31Z" />
	<path id="Layer" class="shp14" d="M214.88 288.1C216.54 287.54 217.74 285.97 217.74 284.12L217.74 236.13L212.01 236.13L212.01 284.12C212.01 285.97 213.21 287.54 214.88 288.1Z" />
	<path id="Layer" class="shp15" d="M209.35 243.49L217.74 251.88L217.74 236.13L209.35 236.13L209.35 243.49Z" />
	<path id="Layer" class="shp16" d="M213.55 243.74C194.25 243.74 178.65 228.13 178.65 208.83C178.65 189.53 194.25 173.93 213.55 173.93C232.85 173.93 248.45 189.53 248.45 208.83C248.45 228.13 232.85 243.74 213.55 243.74Z" />
	<path id="Layer" class="shp17" d="M213.55 237.96C197.44 237.96 184.42 224.94 184.42 208.83C184.42 192.72 197.44 179.7 213.55 179.7C229.66 179.7 242.68 192.72 242.68 208.83C242.68 224.94 229.66 237.96 213.55 237.96Z" />
	<path id="Layer" class="shp18" d="M229.16 177.61C231.52 182.31 232.84 187.61 232.84 193.22C232.84 212.5 217.22 228.13 197.94 228.13C192.33 228.13 187.03 226.8 182.33 224.45C188.06 235.88 199.89 243.74 213.55 243.74C232.83 243.74 248.45 228.11 248.45 208.83C248.45 195.17 240.6 183.34 229.16 177.61L229.16 177.61Z" />
	<path id="Layer" class="shp19" d="M369.07 26.89C386.27 61.22 395.96 99.95 395.96 140.96C395.96 281.79 281.79 395.96 140.96 395.96C99.95 395.96 61.22 386.27 26.89 369.07C68.76 452.63 155.17 510 255 510C395.83 510 510 395.83 510 255C510 155.17 452.63 68.76 369.07 26.89L369.07 26.89Z" />
</svg>